<svg width="12" height="13" viewBox="0 0 12 13" fill="none" xmlns="http://www.w3.org/2000/svg">
<path d="M2.1875 3.6875C2.1875 3.22266 2.57031 2.8125 3.0625 2.8125C3.52734 2.8125 3.9375 3.22266 3.9375 3.6875C3.9375 4.17969 3.52734 4.5625 3.0625 4.5625C2.57031 4.5625 2.1875 4.17969 2.1875 3.6875ZM5.38672 0.625C5.85156 0.625 6.28906 0.816406 6.61719 1.14453L11.4297 5.95703C12.1133 6.64062 12.1133 7.76172 11.4297 8.44531L7.79297 12.082C7.10938 12.7656 5.98828 12.7656 5.30469 12.082L0.492188 7.26953C0.164062 6.94141 0 6.50391 0 6.03906V1.9375C0 1.22656 0.574219 0.625 1.3125 0.625H5.38672ZM1.42188 6.33984L6.23438 11.1523C6.39844 11.3438 6.69922 11.3438 6.86328 11.1523L10.5 7.51562C10.6914 7.35156 10.6914 7.05078 10.5 6.88672L5.6875 2.07422C5.60547 1.99219 5.49609 1.9375 5.38672 1.9375H1.3125V6.03906C1.3125 6.14844 1.33984 6.25781 1.42188 6.33984Z" fill="white"/>
</svg>
