<svg width="80" height="80" viewBox="0 0 80 80" fill="none" xmlns="http://www.w3.org/2000/svg">
<circle cx="40" cy="40" r="40" fill="#F4F4F4"/>
<path d="M60.6055 32.9492C60.9336 33.6875 60.6875 34.4258 60.1133 35L56.5859 38.1992C56.668 38.8555 56.75 39.5938 56.75 40.25C56.75 40.9883 56.668 41.7266 56.5859 42.3828L60.1133 45.582C60.6875 46.1562 60.9336 46.8945 60.6055 47.6328C60.2773 48.6172 59.8672 49.5195 59.375 50.4219L58.9648 51.0781C58.3906 51.9805 57.8164 52.8828 57.1602 53.7031C56.668 54.2773 55.8477 54.4414 55.1094 54.1953L50.5977 52.8008C49.4492 53.6211 48.2188 54.2773 46.9883 54.8516L45.9219 59.5273C45.7578 60.2656 45.1836 60.8398 44.4453 61.0039C43.2969 61.168 42.1484 61.25 40.918 61.25C39.7695 61.25 38.6211 61.168 37.4727 61.0039C36.7344 60.8398 36.1602 60.2656 35.9961 59.5273L34.9297 54.8516C33.6992 54.2773 32.4688 53.6211 31.3203 52.8008L26.8086 54.1953C26.0703 54.4414 25.25 54.2773 24.7578 53.7031C24.1016 52.8828 23.5273 51.9805 22.9531 51.0781L22.543 50.4219C22.0508 49.5195 21.6406 48.6172 21.3125 47.6328C20.9844 46.8945 21.2305 46.1562 21.8047 45.582L25.332 42.3828C25.25 41.7266 25.25 40.9883 25.25 40.25C25.25 39.5938 25.25 38.8555 25.332 38.1992L21.8047 35C21.2305 34.4258 20.9844 33.6875 21.3125 32.9492C21.6406 31.9648 22.0508 31.0625 22.543 30.1602L22.9531 29.5039C23.5273 28.6016 24.1016 27.6992 24.7578 26.8789C25.25 26.3047 26.0703 26.1406 26.8086 26.3867L31.3203 27.7812C32.4688 26.9609 33.6992 26.2227 34.9297 25.7305L35.9961 21.0547C36.1602 20.3164 36.7344 19.7422 37.4727 19.5781C38.6211 19.4141 39.7695 19.25 41 19.25C42.1484 19.25 43.2969 19.4141 44.4453 19.5781C45.1836 19.7422 45.7578 20.3164 45.9219 21.0547L46.9883 25.7305C48.2188 26.2227 49.4492 26.9609 50.5977 27.7812L55.1094 26.3867C55.8477 26.1406 56.668 26.3047 57.1602 26.8789C57.8164 27.6992 58.3906 28.6016 58.9648 29.5039L59.375 30.1602C59.8672 31.0625 60.2773 31.9648 60.6055 32.9492ZM41 46.8125C44.6094 46.8125 47.5625 43.9414 47.5625 40.25C47.5625 36.6406 44.6094 33.6875 41 33.6875C37.3086 33.6875 34.4375 36.6406 34.4375 40.25C34.4375 43.9414 37.3086 46.8125 41 46.8125Z" fill="#00A3E0"/>
</svg>
