<svg width="80" height="80" viewBox="0 0 80 80" fill="none" xmlns="http://www.w3.org/2000/svg">
<circle cx="40" cy="40" r="40" fill="#F4F4F4"/>
<path d="M39.7383 32.9054C39.9718 32.9054 40.2054 32.8286 40.4389 32.8286C44.5647 32.8286 47.9121 36.1304 47.9121 40.2C47.9121 44.2696 44.5647 47.5714 40.4389 47.5714C36.2353 47.5714 32.9658 44.2696 32.9658 40.2C32.9658 40.0464 32.9658 39.8161 32.9658 39.5857C33.6664 39.9696 34.5227 40.2 35.4568 40.2C38.1814 40.2 40.4389 38.05 40.4389 35.2857C40.4389 34.4411 40.1275 33.5964 39.7383 32.9054ZM55.3852 29.2196C59.044 32.5214 61.4572 36.5143 62.6248 39.2786C62.8584 39.8929 62.8584 40.5839 62.6248 41.1982C61.4572 43.8857 59.044 47.8786 55.3852 51.2571C51.7265 54.6357 46.6665 57.4 40.4389 57.4C34.1334 57.4 29.0735 54.6357 25.4148 51.2571C21.756 47.8786 19.3428 43.8857 18.1752 41.1982C17.9416 40.5839 17.9416 39.8929 18.1752 39.2786C19.3428 36.5143 21.756 32.5214 25.4148 29.2196C29.0735 25.8411 34.1334 23 40.4389 23C46.6665 23 51.7265 25.8411 55.3852 29.2196ZM40.4389 29.1429C34.2113 29.1429 29.2292 34.1339 29.2292 40.2C29.2292 46.3429 34.2113 51.2571 40.4389 51.2571C46.5887 51.2571 51.6487 46.3429 51.6487 40.2C51.6487 34.1339 46.5887 29.1429 40.4389 29.1429Z" fill="#00A3E0"/>
</svg>
