<svg width="220" height="58" viewBox="0 0 220 58" fill="none" xmlns="http://www.w3.org/2000/svg">
<g filter="url(#filter0_d_3_12)">
<rect x="5" y="1" width="210" height="48" fill="white" stroke="#00A3E0" stroke-width="2"/>
<path d="M47.674 21.2L43.866 27.528V31H41.598V27.5L37.804 21.2H40.212L42.83 25.554L45.448 21.2H47.674ZM51.219 31.112C48.825 31.112 47.075 29.502 47.075 27.234C47.075 24.966 48.825 23.356 51.219 23.356C53.613 23.356 55.349 24.966 55.349 27.234C55.349 29.502 53.613 31.112 51.219 31.112ZM51.219 29.32C52.311 29.32 53.137 28.536 53.137 27.234C53.137 25.932 52.311 25.148 51.219 25.148C50.127 25.148 49.287 25.932 49.287 27.234C49.287 28.536 50.127 29.32 51.219 29.32ZM62.2128 23.468H64.3968V31H62.3248V30.104C61.7508 30.762 60.9108 31.112 59.9868 31.112C58.0968 31.112 56.7668 30.048 56.7668 27.724V23.468H58.9508V27.402C58.9508 28.662 59.5108 29.222 60.4768 29.222C61.4848 29.222 62.2128 28.578 62.2128 27.192V23.468ZM68.5061 24.462C69.0381 23.734 69.9341 23.356 71.0961 23.356V25.372C70.9141 25.358 70.7741 25.344 70.6061 25.344C69.4021 25.344 68.6041 26.002 68.6041 27.444V31H66.4201V23.468H68.5061V24.462ZM83.7643 25.904C84.8563 26.254 85.5563 27.094 85.5563 28.326C85.5563 30.02 84.2123 31 81.6363 31H76.5683V21.2H81.3563C83.8063 21.2 85.0663 22.222 85.0663 23.748C85.0663 24.728 84.5623 25.484 83.7643 25.904ZM81.0763 22.908H78.8223V25.218H81.0763C82.1823 25.218 82.7843 24.826 82.7843 24.056C82.7843 23.286 82.1823 22.908 81.0763 22.908ZM81.4683 29.292C82.6443 29.292 83.2743 28.928 83.2743 28.088C83.2743 27.262 82.6443 26.87 81.4683 26.87H78.8223V29.292H81.4683ZM92.5233 23.468H94.7073V31H92.6353V30.104C92.0613 30.762 91.2213 31.112 90.2973 31.112C88.4073 31.112 87.0773 30.048 87.0773 27.724V23.468H89.2613V27.402C89.2613 28.662 89.8213 29.222 90.7873 29.222C91.7953 29.222 92.5233 28.578 92.5233 27.192V23.468ZM99.2647 31.112C97.9907 31.112 96.7027 30.762 96.0027 30.3L96.7307 28.732C97.4027 29.166 98.4247 29.46 99.3487 29.46C100.357 29.46 100.735 29.194 100.735 28.774C100.735 27.542 96.1847 28.802 96.1847 25.792C96.1847 24.364 97.4727 23.356 99.6707 23.356C100.707 23.356 101.855 23.594 102.569 24.014L101.841 25.568C101.099 25.148 100.357 25.008 99.6707 25.008C98.6907 25.008 98.2707 25.316 98.2707 25.708C98.2707 26.996 102.821 25.75 102.821 28.718C102.821 30.118 101.519 31.112 99.2647 31.112ZM105.26 22.418C104.448 22.418 103.902 21.886 103.902 21.2C103.902 20.514 104.448 19.982 105.26 19.982C106.072 19.982 106.618 20.486 106.618 21.158C106.618 21.886 106.072 22.418 105.26 22.418ZM104.168 31V23.468H106.352V31H104.168ZM112.957 23.356C114.735 23.356 116.079 24.392 116.079 26.688V31H113.895V27.024C113.895 25.806 113.335 25.246 112.369 25.246C111.319 25.246 110.563 25.89 110.563 27.276V31H108.379V23.468H110.465V24.35C111.053 23.706 111.935 23.356 112.957 23.356ZM125.519 27.262C125.519 27.43 125.491 27.668 125.477 27.85H119.779C119.989 28.788 120.787 29.362 121.935 29.362C122.733 29.362 123.307 29.124 123.825 28.634L124.987 29.894C124.287 30.692 123.237 31.112 121.879 31.112C119.275 31.112 117.581 29.474 117.581 27.234C117.581 24.98 119.303 23.356 121.599 23.356C123.811 23.356 125.519 24.84 125.519 27.262ZM121.613 25.008C120.619 25.008 119.905 25.61 119.751 26.576H123.461C123.307 25.624 122.593 25.008 121.613 25.008ZM129.507 31.112C128.233 31.112 126.945 30.762 126.245 30.3L126.973 28.732C127.645 29.166 128.667 29.46 129.591 29.46C130.599 29.46 130.977 29.194 130.977 28.774C130.977 27.542 126.427 28.802 126.427 25.792C126.427 24.364 127.715 23.356 129.913 23.356C130.949 23.356 132.097 23.594 132.811 24.014L132.083 25.568C131.341 25.148 130.599 25.008 129.913 25.008C128.933 25.008 128.513 25.316 128.513 25.708C128.513 26.996 133.063 25.75 133.063 28.718C133.063 30.118 131.761 31.112 129.507 31.112ZM136.944 31.112C135.67 31.112 134.382 30.762 133.682 30.3L134.41 28.732C135.082 29.166 136.104 29.46 137.028 29.46C138.036 29.46 138.414 29.194 138.414 28.774C138.414 27.542 133.864 28.802 133.864 25.792C133.864 24.364 135.152 23.356 137.35 23.356C138.386 23.356 139.534 23.594 140.248 24.014L139.52 25.568C138.778 25.148 138.036 25.008 137.35 25.008C136.37 25.008 135.95 25.316 135.95 25.708C135.95 26.996 140.5 25.75 140.5 28.718C140.5 30.118 139.198 31.112 136.944 31.112ZM145.967 31V21.2H148.235V29.152H153.149V31H145.967ZM157.791 31.112C155.397 31.112 153.647 29.502 153.647 27.234C153.647 24.966 155.397 23.356 157.791 23.356C160.185 23.356 161.921 24.966 161.921 27.234C161.921 29.502 160.185 31.112 157.791 31.112ZM157.791 29.32C158.883 29.32 159.709 28.536 159.709 27.234C159.709 25.932 158.883 25.148 157.791 25.148C156.699 25.148 155.859 25.932 155.859 27.234C155.859 28.536 156.699 29.32 157.791 29.32ZM169.079 23.468H171.151V29.74C171.151 32.54 169.639 33.828 166.923 33.828C165.495 33.828 164.109 33.478 163.227 32.792L164.095 31.224C164.739 31.742 165.789 32.078 166.755 32.078C168.295 32.078 168.967 31.378 168.967 30.02V29.698C168.393 30.328 167.567 30.636 166.587 30.636C164.501 30.636 162.821 29.194 162.821 26.996C162.821 24.798 164.501 23.356 166.587 23.356C167.637 23.356 168.505 23.706 169.079 24.434V23.468ZM167.021 28.844C168.169 28.844 168.995 28.102 168.995 26.996C168.995 25.89 168.169 25.148 167.021 25.148C165.873 25.148 165.033 25.89 165.033 26.996C165.033 28.102 165.873 28.844 167.021 28.844ZM176.768 31.112C174.374 31.112 172.624 29.502 172.624 27.234C172.624 24.966 174.374 23.356 176.768 23.356C179.162 23.356 180.898 24.966 180.898 27.234C180.898 29.502 179.162 31.112 176.768 31.112ZM176.768 29.32C177.86 29.32 178.686 28.536 178.686 27.234C178.686 25.932 177.86 25.148 176.768 25.148C175.676 25.148 174.836 25.932 174.836 27.234C174.836 28.536 175.676 29.32 176.768 29.32Z" fill="black"/>
</g>
<defs>
<filter id="filter0_d_3_12" x="0" y="0" width="220" height="58" filterUnits="userSpaceOnUse" color-interpolation-filters="sRGB">
<feFlood flood-opacity="0" result="BackgroundImageFix"/>
<feColorMatrix in="SourceAlpha" type="matrix" values="0 0 0 0 0 0 0 0 0 0 0 0 0 0 0 0 0 0 127 0" result="hardAlpha"/>
<feOffset dy="4"/>
<feGaussianBlur stdDeviation="2"/>
<feComposite in2="hardAlpha" operator="out"/>
<feColorMatrix type="matrix" values="0 0 0 0 0 0 0 0 0 0 0 0 0 0 0 0 0 0 0.25 0"/>
<feBlend mode="normal" in2="BackgroundImageFix" result="effect1_dropShadow_3_12"/>
<feBlend mode="normal" in="SourceGraphic" in2="effect1_dropShadow_3_12" result="shape"/>
</filter>
</defs>
</svg>
