<svg width="59" height="59" viewBox="0 0 59 59" fill="none" xmlns="http://www.w3.org/2000/svg">
<circle cx="29.5" cy="29.5" r="29.5" fill="#00A3E0"/>
<path d="M16 18.7241V26.4828C16 27.4526 16.8082 28.2069 17.7241 28.2069H25.4828C26.4526 28.2069 27.2069 27.4526 27.2069 26.4828C27.2069 25.5668 26.4526 24.7586 25.4828 24.7586H22.0884C23.7047 22.6573 26.2371 21.3642 28.9849 21.3642C33.7263 21.3642 37.5517 25.1897 37.5517 29.931C37.5517 34.7263 33.7263 38.5517 28.9849 38.5517C27.0991 38.5517 25.3211 37.9591 23.8125 36.8276C23.0582 36.2888 21.9806 36.4504 21.3879 37.2047C20.7953 37.9591 20.9569 39.0366 21.7112 39.6293C23.8125 41.1918 26.3448 42 28.9849 42C35.6121 42 41 36.6121 41 29.931C41 23.3039 35.6121 17.9159 28.9849 17.9159C25.2134 17.9159 21.7651 19.6401 19.4483 22.5496V18.7241C19.4483 17.8082 18.694 17 17.7241 17C16.8082 17 16 17.8082 16 18.7241Z" fill="white"/>
</svg>
