<svg width="41" height="41" viewBox="0 0 41 41" fill="none" xmlns="http://www.w3.org/2000/svg">
<circle cx="20.5" cy="20.5" r="20.5" fill="white"/>
<path d="M27.6682 25.9982C28.1076 26.467 28.1076 27.1994 27.6682 27.6682C27.1994 28.1076 26.467 28.1076 25.9982 27.6682L22.5119 24.1525C21.3107 24.9435 19.8459 25.3537 18.2639 25.1486C15.5685 24.7678 13.4006 22.5705 13.049 19.9045C12.551 15.9201 15.9201 12.551 19.9045 13.049C22.5705 13.4006 24.7678 15.5685 25.1486 18.2639C25.3537 19.8459 24.9435 21.3107 24.1525 22.4826L27.6682 25.9982ZM15.3342 19.0842C15.3342 21.1642 17.0041 22.8342 19.0842 22.8342C21.135 22.8342 22.8342 21.1642 22.8342 19.0842C22.8342 17.0334 21.135 15.3342 19.0842 15.3342C17.0041 15.3342 15.3342 17.0334 15.3342 19.0842Z" fill="#00A3E0"/>
</svg>
