<svg width="100" height="100" viewBox="0 0 100 100" fill="none" xmlns="http://www.w3.org/2000/svg">
<circle cx="50" cy="50" r="50" fill="#F4F4F4"/>
<path d="M64.025 28.2C66.5031 28.2 68.6 30.2969 68.6 32.775V66.325C68.6 68.8984 66.5031 70.9 64.025 70.9H36.575C34.0016 70.9 32 68.8984 32 66.325V32.775C32 30.2969 34.0016 28.2 36.575 28.2H44.2C44.2 24.8641 46.8687 22.1 50.3 22.1C53.6359 22.1 56.4 24.8641 56.4 28.2H64.025ZM50.3 25.9125C48.9656 25.9125 48.0125 26.9609 48.0125 28.2C48.0125 29.5344 48.9656 30.4875 50.3 30.4875C51.5391 30.4875 52.5875 29.5344 52.5875 28.2C52.5875 26.9609 51.5391 25.9125 50.3 25.9125ZM61.8328 48.025C62.2141 47.6438 62.3094 46.8813 61.8328 46.4047L59.1641 43.7359C58.6875 43.2594 57.925 43.2594 57.5437 43.7359L47.4406 53.7438L43.0562 49.3594C42.5797 48.8828 41.8172 48.8828 41.4359 49.2641L38.6719 52.0281C38.2906 52.4094 38.1953 53.1719 38.6719 53.6484L46.5828 61.5594C46.9641 62.0359 47.7266 62.0359 48.2031 61.5594L61.8328 48.025Z" fill="#00A3E0"/>
</svg>
