<svg width="100" height="100" viewBox="0 0 100 100" fill="none" xmlns="http://www.w3.org/2000/svg">
<circle cx="50" cy="50" r="50" fill="#F4F4F4"/>
<path d="M62.35 56.6C67.4016 56.6 71.5 60.6984 71.5 65.75C71.5 70.8969 67.4016 74.9 62.35 74.9C57.2031 74.9 53.2 70.8969 53.2 65.75C53.2 65.2734 53.2953 64.3203 53.3906 63.8438L43.5734 57.7438C42.0484 58.9828 40.0469 59.65 37.95 59.65C32.8031 59.65 28.8 55.6469 28.8 50.5C28.8 45.4484 32.8031 41.35 37.95 41.35C40.0469 41.35 42.0484 42.1125 43.5734 43.3516L53.3906 37.2516C53.2 36.6797 53.2 36.0125 53.2 35.25C53.2 30.1984 57.2031 26.1 62.35 26.1C67.4016 26.1 71.5 30.1984 71.5 35.25C71.5 40.3969 67.4016 44.4 62.35 44.4C60.1578 44.4 58.1562 43.7328 56.6312 42.4938L46.8141 48.5938C46.9094 49.0703 47.1 50.0234 47.1 50.5C47.1 51.0719 46.9094 52.025 46.8141 52.5016L56.6312 58.6016C58.1562 57.3625 60.1578 56.6 62.35 56.6Z" fill="#00A3E0"/>
</svg>
