<svg width="100" height="100" viewBox="0 0 100 100" fill="none" xmlns="http://www.w3.org/2000/svg">
<circle cx="50" cy="50" r="50" fill="#F4F4F4"/>
<path d="M50.15 22.9C57.6797 22.9 63.875 29.0953 63.875 36.625V41.2H65.4C68.7359 41.2 71.5 43.9641 71.5 47.3V65.6C71.5 69.0312 68.7359 71.7 65.4 71.7H34.9C31.4687 71.7 28.8 69.0312 28.8 65.6V47.3C28.8 43.9641 31.4687 41.2 34.9 41.2H36.425V36.625C36.425 29.0953 42.525 22.9 50.15 22.9ZM50.15 29C45.8609 29 42.525 32.4312 42.525 36.625V41.2H57.775V36.625C57.775 32.4312 54.3438 29 50.15 29ZM53.2 53.4C53.2 51.7797 51.7703 50.35 50.15 50.35C48.4344 50.35 47.1 51.7797 47.1 53.4V59.5C47.1 61.2156 48.4344 62.55 50.15 62.55C51.7703 62.55 53.2 61.2156 53.2 59.5V53.4Z" fill="#00A3E0"/>
</svg>
