<svg width="100" height="100" viewBox="0 0 100 100" fill="none" xmlns="http://www.w3.org/2000/svg">
<circle cx="50" cy="50" r="50" fill="#F4F4F4"/>
<path d="M59.15 49.7C59.15 51.8922 58.9594 53.8938 58.7688 55.8H41.1359C40.9453 53.8938 40.7547 51.8922 40.7547 49.7C40.7547 47.6031 40.9453 45.6016 41.1359 43.6H58.7688C58.9594 45.6016 59.15 47.6031 59.15 49.7ZM73.5422 43.6C74.1141 45.6016 74.4 47.6031 74.4 49.7C74.4 51.8922 74.1141 53.8938 73.5422 55.8H61.8188C62.0094 53.8938 62.2 51.7969 62.2 49.7C62.2 47.6031 62.0094 45.6016 61.8188 43.6H73.5422ZM72.5891 40.55H61.4375C60.4844 34.5453 58.5781 29.3984 56.1953 26.1578C63.6297 28.1594 69.7297 33.4969 72.5891 40.55ZM58.3875 40.55H41.5172C42.0891 37.1188 43.0422 34.0688 44.0906 31.5906C45.1391 29.3031 46.1875 27.6828 47.3313 26.6344C48.3797 25.6813 49.2375 25.3 50 25.3C50.6672 25.3 51.525 25.6813 52.5734 26.6344C53.7172 27.6828 54.7656 29.3031 55.8141 31.5906C56.8625 34.0688 57.8156 37.1188 58.3875 40.55ZM27.3156 40.55C30.175 33.4969 36.275 28.1594 43.7094 26.1578C41.3266 29.3984 39.4203 34.5453 38.4672 40.55H27.3156ZM38.0859 43.6C37.8953 45.6016 37.7047 47.6031 37.7047 49.7C37.7047 51.7969 37.8953 53.8938 38.0859 55.8H26.3625C25.7906 53.8938 25.6 51.8922 25.6 49.7C25.6 47.6031 25.7906 45.6016 26.3625 43.6H38.0859ZM44.0906 67.9047C43.0422 65.4266 42.0891 62.3766 41.5172 58.85H58.3875C57.8156 62.3766 56.8625 65.4266 55.8141 67.9047C54.7656 70.1922 53.7172 71.8125 52.5734 72.8609C51.525 73.8141 50.6672 74.1 49.9047 74.1C49.2375 74.1 48.3797 73.8141 47.3313 72.8609C46.1875 71.8125 45.1391 70.1922 44.0906 67.9047ZM43.7094 73.3375C36.275 71.3359 30.175 65.9984 27.3156 58.85H38.4672C39.4203 64.95 41.3266 70.0969 43.7094 73.3375ZM56.1953 73.3375C58.5781 70.0969 60.4844 64.95 61.4375 58.85H72.5891C69.7297 65.9984 63.6297 71.3359 56.1953 73.3375Z" fill="#00A3E0"/>
</svg>
